<?xml version="1.0" encoding="UTF-8"?>
<!DOCTYPE svg PUBLIC "-//W3C//DTD SVG 1.1//EN" "http://www.w3.org/Graphics/SVG/1.1/DTD/svg11.dtd">
<!-- Creator: CorelDRAW X5 -->
<svg xmlns="http://www.w3.org/2000/svg" xml:space="preserve" width="210mm" height="297mm" style="shape-rendering:geometricPrecision; text-rendering:geometricPrecision; image-rendering:optimizeQuality; fill-rule:evenodd; clip-rule:evenodd"
viewBox="0 0 210 297"
 xmlns:xlink="http://www.w3.org/1999/xlink">
 <defs>
  <style type="text/css">
   <![CDATA[
    .str0 {stroke:#333333;stroke-width:0.25}
    .str1 {stroke:#333333}
    .fil0 {fill:none}
    .fil1 {fill:#2B2A29;fill-rule:nonzero}
   ]]>
  </style>
 </defs>
 <g id="Ebene_x0020_1">
  <metadata id="CorelCorpID_0Corel-Layer"/>
  <rect class="fil0 str0" x="28.0945" y="71.5945" width="153.811" height="153.811"/>
  <rect class="fil0 str1" x="53.312" y="97.6012" width="106.045" height="106.045" rx="2.7517" ry="2.7517"/>
  <rect class="fil0 str1" x="58.6037" y="102.893" width="96.9433" height="96.9433" rx="2.5155" ry="2.5155"/>
  <rect class="fil0 str1" x="59.2853" y="133.796" width="16.51" height="11.8533"/>
  <line class="fil0 str1" x1="59.2853" y1="139.723" x2="70.6687" y2= "139.723" />
  <polyline class="fil0 str1" points="82.0457,190.682 84.7974,185.284 87.0199,190.364 "/>
  <polyline class="fil0 str1" points="128.771,185.284 131.523,190.682 133.745,185.602 "/>
  <rect class="fil0 str1" x="59.2853" y="182.109" width="16.51" height="11.8533"/>
  <rect class="fil0 str1" x="138.984" y="133.796" width="16.51" height="11.8533"/>
  <line class="fil0 str1" x1="138.984" y1="139.723" x2="150.368" y2= "139.723" />
  <rect class="fil0 str1" x="138.984" y="182.109" width="16.51" height="11.8533"/>
  <polyline class="fil0 str1" points="81.3578,141.099 81.3578,136.601 88.237,134.696 88.237,144.274 81.252,142.951 "/>
  <path class="fil1" d="M86.4836 142.281l-0.4957 0 0 -3.1609c-0.1195,0.1139 -0.2757,0.2277 -0.4695,0.3415 -0.1947,0.1139 -0.3687,0.1995 -0.523,0.2559l0 -0.4788c0.2775,-0.1308 0.5202,-0.2888 0.7281,-0.4742 0.207,-0.1862 0.3547,-0.3659 0.4412,-0.5409l0.3189 0 0 4.0574z"/>
  <polyline class="fil0 str1" points="134.91,141.099 134.91,136.601 128.03,134.696 128.03,144.274 135.015,142.951 "/>
  <path class="fil1" d="M133.001 141.804l0 0.477 -2.6708 0c-0.0037,-0.1195 0.0151,-0.2342 0.0574,-0.3443 0.0677,-0.1825 0.1769,-0.3613 0.3264,-0.5381 0.1506,-0.1759 0.3669,-0.3801 0.6491,-0.6115 0.4394,-0.3603 0.7366,-0.6453 0.8909,-0.8561 0.1543,-0.2097 0.2314,-0.4092 0.2314,-0.5964 0,-0.1966 -0.0705,-0.3622 -0.2107,-0.4976 -0.1411,-0.1345 -0.3245,-0.2023 -0.5503,-0.2023 -0.239,0 -0.4299,0.0715 -0.5729,0.2154 -0.144,0.143 -0.2164,0.3415 -0.2183,0.5946l-0.5099 -0.0518c0.0349,-0.3809 0.1666,-0.6707 0.3942,-0.8701 0.2277,-0.1995 0.5343,-0.2992 0.9182,-0.2992 0.3876,0 0.6942,0.1082 0.92,0.3227 0.2267,0.2154 0.3396,0.4816 0.3396,0.7996 0,0.1618 -0.0329,0.3208 -0.0997,0.477 -0.0659,0.1561 -0.1759,0.3208 -0.3293,0.4929 -0.1533,0.1731 -0.4082,0.4102 -0.7648,0.7112 -0.2973,0.2502 -0.4882,0.4196 -0.5729,0.5089 -0.0847,0.0885 -0.1543,0.1778 -0.2098,0.2681l1.9822 0z"/>
 </g>
</svg>
